HIERARCHY
ROOT Hips
{
	OFFSET 0.00000 0.00000 0.00000
	CHANNELS 6 Xposition Yposition Zposition Zrotation Yrotation Xrotation 
	JOINT LHipJoint
	{
		OFFSET 0 0 0
		CHANNELS 3 Zrotation Yrotation Xrotation
		JOINT LeftHip
		{
			OFFSET 1.56857 -1.73443 1.15205
			CHANNELS 3 Zrotation Yrotation Xrotation
			JOINT LeftKnee
			{
				OFFSET 2.39362 -6.57643 0.00000
				CHANNELS 3 Zrotation Yrotation Xrotation
				JOINT LeftAnkle
				{
					OFFSET 2.50952 -6.89485 0.00000
					CHANNELS 3 Zrotation Yrotation Xrotation
					JOINT LeftToe
					{
						OFFSET 0.17171 -0.47178 1.88682
						CHANNELS 3 Zrotation Yrotation Xrotation
						End Site
						{
							OFFSET 0.00000 -0.00000 0.98146
						}
					}
				}
			}
		}
	}
	JOINT RHipJoint
	{
		OFFSET 0 0 0
		CHANNELS 3 Zrotation Yrotation Xrotation
		JOINT RightHip
		{
			OFFSET -1.28153 -1.73443 1.15205
			CHANNELS 3 Zrotation Yrotation Xrotation
			JOINT RightKnee
			{
				OFFSET -2.26861 -6.23296 0.00000
				CHANNELS 3 Zrotation Yrotation Xrotation
				JOINT RightAnkle
				{
					OFFSET -2.54143 -6.98254 0.00000
					CHANNELS 3 Zrotation Yrotation Xrotation
					JOINT RightToe
					{
						OFFSET -0.23309 -0.64041 1.93119
						CHANNELS 3 Zrotation Yrotation Xrotation
						End Site
						{
							OFFSET -0.00000 -0.00000 1.02013
						}
					}
				}
			}
		}
	}
	JOINT lowerback
	{
		OFFSET 0 0 0
		CHANNELS 3 Zrotation Yrotation Xrotation
		JOINT Chest
		{
			OFFSET -0.07096 2.10460 -0.27878
			CHANNELS 3 Zrotation Yrotation Xrotation
			JOINT Chest2
			{
				OFFSET -0.00826 2.13662 -0.08279
				CHANNELS 3 Zrotation Yrotation Xrotation
				JOINT lowerneck
				{
					OFFSET 0 0 0
					CHANNELS 3 Zrotation Yrotation Xrotation
					JOINT Neck
					{
						OFFSET 0.03239 1.77799 0.24435
						CHANNELS 3 Zrotation Yrotation Xrotation
						JOINT Head
						{
							OFFSET 0.01026 1.74194 -0.49664
							CHANNELS 3 Zrotation Yrotation Xrotation
							End Site
							{
								OFFSET 0.00170 1.83057 -0.19653
							}
						}
					}
				}
				JOINT LeftCollar
				{
					OFFSET 0 0 0
					CHANNELS 3 Zrotation Yrotation Xrotation
					JOINT LeftShoulder
					{
						OFFSET 3.19178 1.35907 -0.31412
CHANNELS 3 Zrotation Xrotation Yrotation
						JOINT LeftElbow
						{
OFFSET 0 -4.852470 -0.000000
CHANNELS 3 Zrotation Xrotation Yrotation
							JOINT LeftWrist
							{
OFFSET 0 -3.555840 0.000000
CHANNELS 3 Zrotation Xrotation Yrotation
								JOINT lhand
								{
									OFFSET 0 0 0
CHANNELS 3 Zrotation Xrotation Yrotation
									JOINT LFingers
									{
OFFSET 0 -0.693200 0.000000
CHANNELS 3 Zrotation Xrotation Yrotation
										End Site
										{
OFFSET 0 -0.558880 0.000000
										}
									}
								}
								JOINT LThumb
								{
OFFSET 0 0.000000 0.000000
CHANNELS 3 Zrotation Xrotation Yrotation
									End Site
									{
OFFSET 0 -0.567410 0.567410
									}
								}
							}
						}
					}
				}
				JOINT RightCollar
				{
					OFFSET 0 0 0
					CHANNELS 3 Zrotation Yrotation Xrotation
					JOINT RightShoulder
					{
						OFFSET -3.28999 1.24191 -0.26899
CHANNELS 3 Zrotation Xrotation Yrotation
						JOINT RightElbow
						{
OFFSET 0 -4.644620 0.000000
CHANNELS 3 Zrotation Xrotation Yrotation
							JOINT RightWrist
							{
OFFSET 0 -3.407030 0.000000
CHANNELS 3 Zrotation Xrotation Yrotation
								JOINT rhand
								{
									OFFSET 0 0 0
CHANNELS 3 Zrotation Xrotation Yrotation
									JOINT RFingers
									{
OFFSET 0 -0.619580 0.000000
CHANNELS 3 Zrotation Xrotation Yrotation
										End Site
										{
OFFSET 0 -0.499520 0.000000
										}
									}
								}
								JOINT RThumb
								{
OFFSET 0 0.000000 0.000000
CHANNELS 3 Zrotation Xrotation Yrotation
									End Site
									{
OFFSET 0 -0.507150 0.507150
									}
								}
							}
						}
					}
				}
			}
		}
	}
}
MOTION
Frames: 8
Frame Time: 0.008333333333333333
24.365084 16.335444 0.208287 653.622676 102.440442 652.320397 0.000000 0.000000 0.000000 -34.152373 8.175034 24.734805 0.000000 0.000000 0.000000 0.722829 -3.083780 -15.311246 1.924645 -8.698621 -24.862626 0.000000 0.000000 0.000000 7.102627 3.908760 -30.291025 -2.691879 -10.178633 29.557321 -0.457958 4.557759 -12.041172 -0.710655 -5.385785 15.012592 -15.000512 -1.120504 3.158949 -1.528131 -1.674614 2.626415 6.809781 -1.012658 1.422569 2.783201 0.994109 -23.177495 0.228099 0.766594 31.401440 -0.185655 0.891560 14.789565 0.000000 0.000000 0.000000 5.387301 -14.407459 -47.741654 22.534014 -33.575142 6.878945 20.774979 -8.698841 28.174529 0.000000 0.000000 0.000000 -7.125000 0.000000 0.000000 -5.688325 0.301976 -5.686440 0.000000 0.000000 0.000000 -2.727290 16.011102 16.943191 -14.048414 -22.803894 -2.846869 -11.195722 11.229119 30.258742 0.000000 0.000000 0.000000 7.125000 0.000000 0.000000 22.851698 59.233709 -8.211532
24.607644 16.345552 0.208050 655.252689 101.623818 653.921893 0.000000 0.000000 0.000000 -33.040843 8.367020 25.668550 0.000000 0.000000 0.000000 0.643219 -2.374922 -14.526329 2.447680 -9.742028 -28.145416 0.000000 0.000000 0.000000 8.215276 3.238891 -30.047312 -2.740325 -10.262234 29.830194 -0.392491 4.307058 -11.138896 -0.710057 -5.382313 15.003043 -13.934594 -1.107460 2.906908 -1.274608 -1.612471 2.626788 6.483347 -0.981356 1.513146 2.868427 1.012787 -23.264194 0.161973 0.789469 31.603603 -0.220886 0.907711 14.902030 0.000000 0.000000 0.000000 5.047587 -13.526586 -47.365962 22.307941 -33.323189 6.754261 20.713577 -8.249769 28.117557 0.000000 0.000000 0.000000 -7.125000 0.000000 0.000000 -5.717698 0.372061 -5.709054 0.000000 0.000000 0.000000 -2.713638 15.533389 16.626537 -13.830338 -22.491474 -2.763027 -10.837789 12.106997 30.013706 0.000000 0.000000 0.000000 7.125000 0.000000 0.000000 23.029423 58.929611 -8.110120
24.840502 16.357654 0.211220 657.810364 100.668501 656.362132 0.000000 0.000000 0.000000 -31.688270 8.522942 26.644968 0.000000 0.000000 0.000000 0.622684 -2.295312 -14.298638 2.210239 -9.286240 -26.698392 0.000000 0.000000 0.000000 9.444327 3.005007 -29.468732 -2.798074 -10.360706 30.153028 -0.303556 4.319887 -9.810479 -0.970403 -6.260069 17.544640 -12.746939 -1.090801 2.924613 -0.915102 -1.597086 2.585150 6.206173 -0.959280 1.417121 2.767604 0.977421 -23.273821 0.243985 0.762583 31.826242 -0.172242 0.903625 15.004825 0.000000 0.000000 0.000000 4.643482 -12.533927 -46.983369 21.951360 -32.921588 6.559614 20.981521 -8.224767 28.297661 0.000000 0.000000 0.000000 -7.125000 0.000000 0.000000 -5.581581 0.136191 -5.594839 0.000000 0.000000 0.000000 -2.802745 14.896486 16.164537 -13.543114 -22.077710 -2.653978 -10.602327 13.310607 29.660390 0.000000 0.000000 0.000000 7.125000 0.000000 0.000000 22.999074 58.554870 -7.889400
25.069902 16.365209 0.214478 659.263699 99.923033 657.630860 0.000000 0.000000 0.000000 -30.611078 8.840886 27.627826 0.000000 0.000000 0.000000 0.587327 -2.164069 -13.893850 1.947275 -8.755297 -25.032769 0.000000 0.000000 0.000000 10.426220 2.850649 -28.700123 -2.878503 -10.495599 30.596958 -0.272349 4.575610 -9.339488 -1.141093 -6.782136 19.072026 -11.874241 -1.021295 3.077520 -0.604646 -1.533834 2.499574 6.052678 -0.907522 1.202477 2.742860 0.945988 -23.038587 0.112125 0.798299 31.934242 -0.215496 0.902675 15.002443 0.000000 0.000000 0.000000 4.109273 -11.415677 -46.395429 21.423885 -32.319204 6.275313 21.216417 -8.067670 28.634962 0.000000 0.000000 0.000000 -7.125000 0.000000 0.000000 -5.485046 -0.255344 -5.534782 0.000000 0.000000 0.000000 -2.997403 14.366817 16.172953 -13.410532 -21.885727 -2.604320 -10.431898 13.901153 29.782955 0.000000 0.000000 0.000000 7.125000 0.000000 0.000000 23.266798 58.629064 -8.029846
25.315410 16.378134 0.219516 661.073563 99.328238 659.082372 0.000000 0.000000 0.000000 -29.593462 9.157135 28.813096 0.000000 0.000000 0.000000 0.459806 -1.517319 -12.354169 2.097437 -9.063144 -25.995119 0.000000 0.000000 0.000000 11.317092 2.602547 -27.639096 -2.957899 -10.626480 31.030296 -0.323158 4.667549 -10.145318 -1.003459 -6.373899 17.873468 -11.245702 -1.058283 2.794611 -0.323503 -1.519342 2.777518 5.986563 -0.930839 1.637348 2.935113 1.064071 -22.991433 -0.063125 0.960397 31.918842 -0.290495 0.968783 14.989971 0.000000 0.000000 0.000000 3.679585 -10.735872 -45.692881 20.744804 -31.528344 5.916328 21.603128 -7.889242 28.755760 0.000000 0.000000 0.000000 -7.125000 0.000000 0.000000 -5.273860 -0.455360 -5.338129 0.000000 0.000000 0.000000 -3.271245 13.428743 16.704610 -13.356934 -21.807962 -2.584380 -10.231233 14.089429 29.948656 0.000000 0.000000 0.000000 7.125000 0.000000 0.000000 23.599405 58.735282 -8.213769
25.550877 16.401485 0.225719 663.929352 98.397968 661.589162 0.000000 0.000000 0.000000 -28.156654 9.476035 29.914162 0.000000 0.000000 0.000000 0.307899 -0.683760 -10.248992 2.398066 -9.650185 -27.851222 0.000000 0.000000 0.000000 12.608811 2.762756 -26.295574 -2.985337 -10.671237 31.178992 -0.345248 4.776637 -10.486402 -1.163043 -6.844531 19.256287 -10.164180 -1.019938 2.945356 0.008602 -1.480334 2.795273 5.732755 -0.895504 1.533083 3.164457 1.015325 -23.075786 -0.306911 0.900837 32.305173 -0.440058 0.947821 15.189162 0.000000 0.000000 0.000000 3.267833 -9.558929 -44.881459 20.178887 -30.856945 5.622997 21.409209 -7.327233 28.756095 0.000000 0.000000 0.000000 -7.125000 0.000000 0.000000 -5.387450 -0.417362 -5.450515 0.000000 0.000000 0.000000 -3.379772 12.887229 16.985032 -13.466165 -21.966397 -2.625106 -10.348362 14.340982 30.108085 0.000000 0.000000 0.000000 7.125000 0.000000 0.000000 23.604569 58.905931 -8.314197
25.780624 16.432579 0.235319 665.828761 97.389636 663.141596 0.000000 0.000000 0.000000 -26.754656 9.954867 30.825907 0.000000 0.000000 0.000000 0.160686 0.513839 -7.706299 2.318263 -9.498897 -27.369437 0.000000 0.000000 0.000000 13.941939 3.182163 -24.700538 -2.935371 -10.589536 30.907769 -0.361805 4.918982 -10.738227 -1.362147 -7.386089 20.864909 -9.146011 -0.876219 2.941491 0.342789 -1.270957 2.930990 5.507592 -0.787250 1.616458 3.162524 1.067234 -22.749972 -0.287068 1.002194 32.352270 -0.411697 0.999929 15.139866 0.000000 0.000000 0.000000 2.797870 -8.515879 -44.055928 19.511274 -30.047997 5.284992 20.933351 -6.457965 28.498444 0.000000 0.000000 0.000000 -7.125000 0.000000 0.000000 -5.634258 -0.060523 -5.667590 0.000000 0.000000 0.000000 -3.491272 12.043612 17.176547 -13.546536 -22.082763 -2.655231 -11.551101 14.813790 28.568273 0.000000 0.000000 0.000000 7.125000 0.000000 0.000000 21.259424 57.748537 -6.865848
26.008656 16.465159 0.244637 668.579699 96.312855 665.419591 0.000000 0.000000 0.000000 -25.297823 10.394920 31.539167 0.007728 0.148264 0.408282 0.030838 2.050203 -4.714926 2.261789 -9.390039 -27.024275 0.000000 0.000000 0.000000 15.448253 3.218510 -23.021976 -2.861338 -10.467153 30.503067 -0.379229 5.069623 -10.998558 -1.380907 -7.435638 21.012725 -8.018129 -0.749230 3.212834 0.673539 -1.109110 3.010941 5.220757 -0.687876 1.495255 2.990954 0.984422 -22.633418 -0.134318 0.926286 32.690830 -0.329954 0.982426 15.267669 0.000000 0.000000 0.000000 2.369676 -7.267488 -43.106272 18.820632 -29.195000 4.943185 20.868961 -6.094441 28.532368 0.000000 0.000000 0.000000 -7.125000 0.000000 0.000000 -5.676223 -0.083005 -5.712510 0.000000 0.000000 0.000000 -3.674965 11.291353 17.868075 -13.591394 -22.147548 -2.672146 -11.202283 14.705946 29.183370 0.000000 0.000000 0.000000 7.125000 0.000000 0.000000 22.031321 58.248844 -7.372677
